<?xml version="1.0" encoding="utf-8" ?>
<svg baseProfile="tiny" height="100%" version="1.2" width="100%" xmlns="http://www.w3.org/2000/svg" xmlns:ev="http://www.w3.org/2001/xml-events" xmlns:xlink="http://www.w3.org/1999/xlink"><defs /><path d="M 56,19 L 55,20 L 53,20 L 52,21 L 50,21 L 49,22 L 48,22 L 46,24 L 45,24 L 43,26 L 42,26 L 36,32 L 36,33 L 34,35 L 34,36 L 33,37 L 33,38 L 32,39 L 32,40 L 31,41 L 31,43 L 30,44 L 30,684 L 31,685 L 31,687 L 32,688 L 32,689 L 33,690 L 33,691 L 34,692 L 34,693 L 36,695 L 36,696 L 42,702 L 43,702 L 45,704 L 46,704 L 48,706 L 49,706 L 50,707 L 52,707 L 53,708 L 55,708 L 56,709 L 703,709 L 704,708 L 706,708 L 707,707 L 709,707 L 710,706 L 711,706 L 713,704 L 714,704 L 716,702 L 717,702 L 723,696 L 723,695 L 725,693 L 725,692 L 726,691 L 726,690 L 727,689 L 727,688 L 728,687 L 728,685 L 729,684 L 729,44 L 728,43 L 728,41 L 727,40 L 727,39 L 726,38 L 726,37 L 725,36 L 725,35 L 723,33 L 723,32 L 717,26 L 716,26 L 714,24 L 713,24 L 711,22 L 710,22 L 709,21 L 707,21 L 706,20 L 704,20 L 703,19 Z" fill="black" /></svg>